<svg id="Component_45_2" data-name="Component 45 – 2" xmlns="http://www.w3.org/2000/svg" width="523" height="483" viewBox="0 0 523 483">
  <rect id="Rectangle_296" data-name="Rectangle 296" width="523" height="483" fill="#3d6ad6"/>
  <g id="_x30_1._Facebook" transform="translate(209.545 145.666)">
    <path id="Icon_11_" d="M57.426,118.776c-.756,0-16.62,0-23.936,0-3.767,0-5.11-1.356-5.11-5.147q-.007-14.605,0-29.211c0-3.743,1.423-5.171,5.142-5.173,7.317,0,23.094,0,23.905,0,0-.667,0-14.725,0-21.2,0-9.571,1.712-18.732,6.575-27.12A39.927,39.927,0,0,1,85.507,13.055,53.165,53.165,0,0,1,103.935,10q11.842-.007,23.686.017c3.393,0,4.9,1.505,4.906,4.923q.022,13.738,0,27.474c0,3.454-1.447,4.841-4.918,4.879-6.471.07-12.947.026-19.411.287-6.529,0-9.963,3.189-9.963,9.946-.157,7.148-.065,14.3-.065,21.711.612,0,19.192,0,27.876,0,3.945,0,5.294,1.356,5.294,5.322q0,14.526-.01,29.054c0,3.909-1.269,5.156-5.238,5.159-8.684,0-27.192,0-28,0v78.379c0,4.178-1.315,5.51-5.438,5.51q-15.079,0-30.16,0c-3.644,0-5.065-1.416-5.065-5.06,0-25.526,0-77.934,0-78.83Z" transform="translate(-28.374 -9.999)" fill="#fff"/>
  </g>
  <text id="FACEBOOK" transform="translate(52 105)" fill="#fff" font-size="50" font-family="Exo" font-weight="700" opacity="0"><tspan x="0" y="0">FACEBOOK</tspan></text>
  <text id="With_over_2_billion_monthly_active_users_you_are_guaranteed_to_reach_your_desired_audience_through_Facebook._Use_the_leading_social_media_platform_to_grow_your_business." data-name="With over 2 billion monthly active users, you are guaranteed to reach your desired audience through Facebook. Use the leading social media platform to grow your business." transform="translate(52 146)" fill="#fff" font-size="24" font-family="Exo" opacity="0"><tspan x="0" y="24">With over 2 billion monthly active </tspan><tspan x="0" y="54">users, you are guaranteed to reach </tspan><tspan x="0" y="84">your desired audience through </tspan><tspan x="0" y="114">Facebook. Use the leading social media </tspan><tspan x="0" y="144">platform to grow your business.</tspan></text>
  <rect id="Rectangle_297" data-name="Rectangle 297" width="365" height="45" transform="translate(52 353)" fill="#fff" opacity="0"/>
  <text id="FACEBOOK_MARKETING_SERVICE" data-name="FACEBOOK MARKETING SERVICE" transform="translate(52 362)" fill="#3d6ad6" font-size="20" font-family="Exo" font-weight="600"><tspan x="-150" y="20">FACEBOOK MARKETING SERVICE</tspan></text>
</svg>
