<svg xmlns="http://www.w3.org/2000/svg" width="524" height="484" viewBox="0 0 524 484">
  <g id="Group_656" data-name="Group 656" transform="translate(-1254 -4349)">
    <rect id="Rectangle_250" data-name="Rectangle 250" width="524" height="484" transform="translate(1254 4349)" fill="#03a9f4"/>
    <path id="Path_471" data-name="Path 471" d="M188.666,66.147a80.641,80.641,0,0,1-22.286,6.108A38.461,38.461,0,0,0,183.4,50.877a77.3,77.3,0,0,1-24.527,9.363A38.675,38.675,0,0,0,91.963,86.688a39.826,39.826,0,0,0,.9,8.82A109.479,109.479,0,0,1,13.136,55.051a38.688,38.688,0,0,0,11.886,51.694,38.2,38.2,0,0,1-17.475-4.764v.424a38.856,38.856,0,0,0,30.988,38,38.6,38.6,0,0,1-10.141,1.273,34.2,34.2,0,0,1-7.323-.66,39.046,39.046,0,0,0,36.141,26.944,77.717,77.717,0,0,1-47.957,16.5A72.447,72.447,0,0,1,0,183.934a108.889,108.889,0,0,0,59.335,17.357c71.174,0,110.087-58.958,110.087-110.063,0-1.71-.059-3.361-.142-5A77.161,77.161,0,0,0,188.666,66.147Z" transform="translate(1426.228 4466)" fill="#fff"/>
  </g>
</svg>
